<?xml version="1.0" encoding="iso-8859-1"?>
<!-- Uploaded to: SVG Repo, www.svgrepo.com, Generator: SVG Repo Mixer Tools -->
<svg version="1.1" id="Layer_1" xmlns="http://www.w3.org/2000/svg" xmlns:xlink="http://www.w3.org/1999/xlink" 
	 viewBox="0 0 512 512" xml:space="preserve">
<g>
	
		<rect x="190.187" y="47.136" transform="matrix(-0.7651 -0.644 0.644 -0.7651 266.2438 343.7818)" style="fill:#247396;" width="11.295" height="152.374"/>
	
		<rect x="239.976" y="117.659" transform="matrix(-0.644 -0.765 0.765 -0.644 425.446 444.5862)" style="fill:#247396;" width="152.375" height="11.294"/>
</g>
<rect y="167.702" style="fill:#FFCA6C;" width="512" height="303.061"/>
<path style="fill:#FFEEA9;" d="M480.625,394.259V244.203c-24.924,0-45.127-20.204-45.127-45.127H76.501
	c0,24.924-20.204,45.127-45.127,45.127v150.056c24.924,0,45.127,20.204,45.127,45.127h358.996
	C435.497,414.463,455.702,394.259,480.625,394.259z"/>
<g>
	<path style="fill:#DD852C;" d="M132.514,268.338c-5.198,0-9.412,4.214-9.412,9.412v32.069H95.258V277.75
		c0-5.198-4.214-9.412-9.412-9.412c-5.198,0-9.412,4.214-9.412,9.412v82.963c0,5.198,4.214,9.412,9.412,9.412
		c5.198,0,9.412-4.214,9.412-9.412v-32.069h27.845v32.069c0,5.198,4.214,9.412,9.412,9.412c5.198,0,9.412-4.214,9.412-9.412V277.75
		C141.926,272.552,137.712,268.338,132.514,268.338z"/>
	<path style="fill:#DD852C;" d="M189.001,268.338c-18.056,0-32.747,14.691-32.747,32.747v36.294
		c0,18.056,14.691,32.747,32.747,32.747s32.747-14.691,32.747-32.747v-36.294C221.748,283.027,207.059,268.338,189.001,268.338z
		 M202.924,337.378c0,7.677-6.246,13.923-13.923,13.923c-7.677,0-13.923-6.246-13.923-13.923v-36.294
		c0-7.677,6.246-13.923,13.923-13.923c7.677,0,13.923,6.246,13.923,13.923V337.378z"/>
	<path style="fill:#DD852C;" d="M281.127,268.338h-46.668c-5.198,0-9.412,4.214-9.412,9.412c0,5.198,4.214,9.412,9.412,9.412h13.921
		v73.551c0,5.198,4.214,9.412,9.412,9.412c5.199,0,9.412-4.214,9.412-9.412v-73.551h13.923c5.199,0,9.412-4.214,9.412-9.412
		C290.539,272.552,286.325,268.338,281.127,268.338z"/>
	<path style="fill:#DD852C;" d="M359.735,287.162c5.199,0,9.412-4.214,9.412-9.412c0-5.198-4.213-9.412-9.412-9.412h-46.668
		c-5.199,0-9.412,4.214-9.412,9.412v82.963c0,5.198,4.213,9.412,9.412,9.412h46.668c5.199,0,9.412-4.214,9.412-9.412
		s-4.213-9.412-9.412-9.412h-37.256v-22.302h22.406c5.199,0,9.412-4.214,9.412-9.412s-4.213-9.412-9.412-9.412h-22.406v-23.012
		H359.735z"/>
	<path style="fill:#DD852C;" d="M438.704,351.301h-37.257V277.75c0-5.198-4.213-9.412-9.412-9.412c-5.199,0-9.412,4.214-9.412,9.412
		v82.963c0,5.198,4.213,9.412,9.412,9.412h46.67c5.199,0,9.412-4.214,9.412-9.412S443.903,351.301,438.704,351.301z"/>
	<circle style="fill:#DD852C;" cx="256" cy="62.097" r="20.86"/>
</g>
<g>
	<polygon style="fill:#E24733;" points="136.526,213.125 142.79,225.817 156.795,227.852 146.661,237.73 149.053,251.679 
		136.526,245.093 123.999,251.679 126.392,237.73 116.257,227.852 130.263,225.817 	"/>
	<polygon style="fill:#E24733;" points="196.262,213.125 202.526,225.817 216.531,227.852 206.398,237.73 208.79,251.679 
		196.262,245.093 183.737,251.679 186.129,237.73 175.995,227.852 190,225.817 	"/>
	<polygon style="fill:#E24733;" points="256,213.125 262.262,225.817 276.268,227.852 266.134,237.73 268.526,251.679 256,245.093 
		243.473,251.679 245.865,237.73 235.731,227.852 249.736,225.817 	"/>
	<polygon style="fill:#E24733;" points="315.736,213.125 322,225.817 336.005,227.852 325.87,237.73 328.263,251.679 
		315.736,245.093 303.209,251.679 305.601,237.73 295.467,227.852 309.473,225.817 	"/>
	<polygon style="fill:#E24733;" points="375.473,213.125 381.736,225.817 395.741,227.852 385.606,237.73 388,251.679 
		375.473,245.093 362.945,251.679 365.339,237.73 355.204,227.852 369.209,225.817 	"/>
	<polygon style="fill:#E24733;" points="136.526,386.783 142.79,399.474 156.795,401.509 146.661,411.387 149.053,425.336 
		136.526,418.75 123.999,425.336 126.392,411.387 116.257,401.509 130.263,399.474 	"/>
	<polygon style="fill:#E24733;" points="196.262,386.783 202.526,399.474 216.531,401.509 206.398,411.387 208.79,425.336 
		196.262,418.75 183.737,425.336 186.129,411.387 175.995,401.509 190,399.474 	"/>
	<polygon style="fill:#E24733;" points="256,386.783 262.262,399.474 276.268,401.509 266.134,411.387 268.526,425.336 256,418.75 
		243.473,425.336 245.865,411.387 235.731,401.509 249.736,399.474 	"/>
	<polygon style="fill:#E24733;" points="315.736,386.783 322,399.474 336.005,401.509 325.87,411.387 328.263,425.336 
		315.736,418.75 303.209,425.336 305.601,411.387 295.467,401.509 309.473,399.474 	"/>
	<polygon style="fill:#E24733;" points="375.473,386.783 381.736,399.474 395.741,401.509 385.606,411.387 388,425.336 
		375.473,418.75 362.945,425.336 365.339,411.387 355.204,401.509 369.209,399.474 	"/>
</g>
</svg>